<mxfile host="65bd71144e">
    <diagram id="HBzD9bpPEz_7MScTaqaL" name="Page-1">
        <mxGraphModel dx="756" dy="611" grid="1" gridSize="10" guides="1" tooltips="1" connect="1" arrows="1" fold="1" page="1" pageScale="1" pageWidth="850" pageHeight="1100" math="0" shadow="0">
            <root>
                <mxCell id="0"/>
                <mxCell id="1" parent="0"/>
                <mxCell id="2" value="Luhn's algorithm" style="rounded=0;whiteSpace=wrap;html=1;fontFamily=Times New Roman;" parent="1" vertex="1">
                    <mxGeometry x="260" y="30" width="120" height="60" as="geometry"/>
                </mxCell>
                <mxCell id="13" style="edgeStyle=none;html=1;fontFamily=Times New Roman;fontSize=12;fontColor=#009900;" parent="1" source="4" target="5" edge="1">
                    <mxGeometry relative="1" as="geometry"/>
                </mxCell>
                <mxCell id="25" style="edgeStyle=none;html=1;entryX=0.5;entryY=0;entryDx=0;entryDy=0;fontFamily=Times New Roman;fontSize=11;fontColor=#009900;" parent="1" source="4" target="12" edge="1">
                    <mxGeometry relative="1" as="geometry"/>
                </mxCell>
                <mxCell id="4" value="&lt;font color=&quot;#6043f0&quot; style=&quot;font-size: 14px;&quot;&gt;Input of a number&lt;/font&gt;" style="rounded=0;whiteSpace=wrap;html=1;fontFamily=Times New Roman;fontStyle=1" parent="1" vertex="1">
                    <mxGeometry x="260" y="130" width="120" height="60" as="geometry"/>
                </mxCell>
                <mxCell id="26" style="edgeStyle=none;html=1;fontFamily=Times New Roman;fontSize=11;fontColor=#009900;" parent="1" source="5" target="27" edge="1">
                    <mxGeometry relative="1" as="geometry">
                        <mxPoint x="320" y="640" as="targetPoint"/>
                    </mxGeometry>
                </mxCell>
                <mxCell id="36" value="" style="edgeStyle=none;html=1;fontFamily=Times New Roman;fontSize=16;fontColor=#FF0000;" parent="1" source="5" target="27" edge="1">
                    <mxGeometry relative="1" as="geometry"/>
                </mxCell>
                <mxCell id="5" value="e" style="whiteSpace=wrap;html=1;aspect=fixed;fontFamily=Times New Roman;fontSize=14;fontColor=#6043F0;" parent="1" vertex="1">
                    <mxGeometry x="135" y="210" width="370" height="370" as="geometry"/>
                </mxCell>
                <mxCell id="7" value="Verification process" style="rounded=0;whiteSpace=wrap;html=1;fontFamily=Times New Roman;fontSize=14;fontColor=#990000;fontStyle=1" parent="1" vertex="1">
                    <mxGeometry y="360" width="120" height="60" as="geometry"/>
                </mxCell>
                <mxCell id="9" value="&lt;font&gt;User input&lt;/font&gt;" style="rounded=0;whiteSpace=wrap;html=1;fontFamily=Times New Roman;fontSize=14;fontColor=#990000;" parent="1" vertex="1">
                    <mxGeometry y="130" width="120" height="60" as="geometry"/>
                </mxCell>
                <mxCell id="17" style="edgeStyle=none;html=1;exitX=0.5;exitY=1;exitDx=0;exitDy=0;entryX=0.5;entryY=0;entryDx=0;entryDy=0;fontFamily=Times New Roman;fontSize=14;fontColor=#009900;" parent="1" source="12" target="16" edge="1">
                    <mxGeometry relative="1" as="geometry"/>
                </mxCell>
                <mxCell id="12" value="&#10;&lt;span style=&quot;font-family: &amp;quot;PT Sans&amp;quot;; font-size: 12px; font-style: normal; font-variant-ligatures: normal; font-variant-caps: normal; font-weight: 400; letter-spacing: normal; orphans: 2; text-align: left; text-indent: 0px; text-transform: none; widows: 2; word-spacing: 0px; -webkit-text-stroke-width: 0px; text-decoration-thickness: initial; text-decoration-style: initial; text-decoration-color: initial; float: none; display: inline !important;&quot;&gt;Multiply every other digit by 2, starting with the numberâ€™s second-to-last digit,&lt;/span&gt;&#10;&#10;" style="ellipse;whiteSpace=wrap;html=1;labelBackgroundColor=none;fontFamily=Times New Roman;fontSize=12;fontColor=#009900;" parent="1" vertex="1">
                    <mxGeometry x="185" y="225" width="270" height="90" as="geometry"/>
                </mxCell>
                <mxCell id="19" value="" style="edgeStyle=none;html=1;fontFamily=Times New Roman;fontSize=10;fontColor=#009900;" parent="1" source="16" target="18" edge="1">
                    <mxGeometry relative="1" as="geometry"/>
                </mxCell>
                <mxCell id="16" value="summing said numbers" style="shape=hexagon;perimeter=hexagonPerimeter2;whiteSpace=wrap;html=1;fixedSize=1;labelBackgroundColor=none;fontFamily=Times New Roman;fontSize=14;fontColor=#009900;" parent="1" vertex="1">
                    <mxGeometry x="260" y="340" width="120" height="50" as="geometry"/>
                </mxCell>
                <mxCell id="23" style="edgeStyle=none;html=1;exitX=0.5;exitY=1;exitDx=0;exitDy=0;entryX=0.5;entryY=0;entryDx=0;entryDy=0;fontFamily=Times New Roman;fontSize=11;fontColor=#009900;" parent="1" source="18" target="22" edge="1">
                    <mxGeometry relative="1" as="geometry"/>
                </mxCell>
                <mxCell id="18" value="&lt;span style=&quot;font-size: 14px;&quot;&gt;summing the sum with the numbers that werent multiplied&lt;/span&gt;" style="shape=hexagon;perimeter=hexagonPerimeter2;whiteSpace=wrap;html=1;fixedSize=1;labelBackgroundColor=none;fontFamily=Times New Roman;fontSize=14;fontColor=#009900;" parent="1" vertex="1">
                    <mxGeometry x="220" y="400" width="200" height="60" as="geometry"/>
                </mxCell>
                <mxCell id="28" style="edgeStyle=none;html=1;fontFamily=Times New Roman;fontSize=16;fontColor=#33FF33;" parent="1" source="22" target="5" edge="1">
                    <mxGeometry relative="1" as="geometry"/>
                </mxCell>
                <mxCell id="35" style="edgeStyle=none;html=1;entryX=0;entryY=0.5;entryDx=0;entryDy=0;fontFamily=Times New Roman;fontSize=16;fontColor=#FF0000;" parent="1" source="22" target="30" edge="1">
                    <mxGeometry relative="1" as="geometry"/>
                </mxCell>
                <mxCell id="22" value="&#10;&lt;span style=&quot;font-family: &amp;quot;PT Sans&amp;quot;; font-size: 11px; font-style: normal; font-variant-ligatures: normal; font-variant-caps: normal; font-weight: 400; letter-spacing: normal; orphans: 2; text-align: left; text-indent: 0px; text-transform: none; widows: 2; word-spacing: 0px; -webkit-text-stroke-width: 0px; background-color: rgb(33, 37, 41); text-decoration-thickness: initial; text-decoration-style: initial; text-decoration-color: initial; float: none; display: inline !important;&quot;&gt;if the total modulo 10 is congruent to 0&lt;/span&gt;&#10;&#10;" style="rounded=0;whiteSpace=wrap;html=1;labelBackgroundColor=none;fontFamily=Times New Roman;fontSize=11;fontColor=#009900;" parent="1" vertex="1">
                    <mxGeometry x="260" y="480" width="120" height="40" as="geometry"/>
                </mxCell>
                <mxCell id="27" value="&lt;b&gt;&lt;font color=&quot;#33ff33&quot; style=&quot;font-size: 16px;&quot;&gt;Verified&lt;/font&gt;&lt;/b&gt;" style="rounded=1;whiteSpace=wrap;html=1;labelBackgroundColor=none;fontFamily=Times New Roman;fontSize=11;fontColor=#009900;" parent="1" vertex="1">
                    <mxGeometry x="260" y="620" width="120" height="60" as="geometry"/>
                </mxCell>
                <mxCell id="33" style="edgeStyle=none;html=1;exitX=0.5;exitY=1;exitDx=0;exitDy=0;entryX=0.905;entryY=1;entryDx=0;entryDy=0;entryPerimeter=0;fontFamily=Times New Roman;fontSize=16;fontColor=#FF0000;" parent="1" source="30" target="5" edge="1">
                    <mxGeometry relative="1" as="geometry"/>
                </mxCell>
                <mxCell id="37" style="edgeStyle=none;html=1;entryX=0.5;entryY=0;entryDx=0;entryDy=0;fontFamily=Times New Roman;fontSize=16;fontColor=#FF0000;" parent="1" source="30" target="34" edge="1">
                    <mxGeometry relative="1" as="geometry"/>
                </mxCell>
                <mxCell id="30" value="&lt;font color=&quot;#ff0000&quot;&gt;else&lt;/font&gt;" style="rounded=1;whiteSpace=wrap;html=1;labelBackgroundColor=none;fontFamily=Times New Roman;fontSize=16;fontColor=#33FF33;" parent="1" vertex="1">
                    <mxGeometry x="440" y="485" width="60" height="30" as="geometry"/>
                </mxCell>
                <mxCell id="34" value="Invalid" style="shape=parallelogram;perimeter=parallelogramPerimeter;whiteSpace=wrap;html=1;fixedSize=1;labelBackgroundColor=none;fontFamily=Times New Roman;fontSize=16;fontColor=#FF0000;" parent="1" vertex="1">
                    <mxGeometry x="410" y="620" width="120" height="60" as="geometry"/>
                </mxCell>
                <mxCell id="38" value="output" style="rounded=0;whiteSpace=wrap;html=1;labelBackgroundColor=none;fontFamily=Times New Roman;fontSize=16;fontColor=#990000;" parent="1" vertex="1">
                    <mxGeometry y="620" width="120" height="60" as="geometry"/>
                </mxCell>
                <mxCell id="39" value="" style="rounded=1;whiteSpace=wrap;html=1;" vertex="1" parent="1">
                    <mxGeometry y="890" width="120" height="60" as="geometry"/>
                </mxCell>
            </root>
        </mxGraphModel>
    </diagram>
</mxfile>